<?xml version="1.0" standalone="no"?><!DOCTYPE svg PUBLIC "-//W3C//DTD SVG 1.1//EN" "http://www.w3.org/Graphics/SVG/1.1/DTD/svg11.dtd"><svg class="icon" width="200px" height="200.00px" viewBox="0 0 1024 1024" version="1.1" xmlns="http://www.w3.org/2000/svg"><path d="M510.464 509.5424m-432.3328 0a432.3328 432.3328 0 1 0 864.6656 0 432.3328 432.3328 0 1 0-864.6656 0Z" fill="#51C5FF" /><path d="M285.4912 415.4368c-85.0432 0-160.4096 41.3696-207.104 105.0624 4.5568 182.7328 122.368 337.3056 285.952 396.032 103.2192-33.28 177.92-130.048 177.92-244.3776-0.0512-141.7728-114.9952-256.7168-256.768-256.7168z" fill="#7BE0FF" /><path d="M342.2208 308.1216h6.144v291.2256h-6.144c-36.096 0-65.3824-29.2864-65.3824-65.3824V373.504c0.0512-36.096 29.2864-65.3824 65.3824-65.3824z" fill="#CAF8FF" /><path d="M706.7136 636.0576h-135.68c10.5472 34.6624 24.7296 105.9328-24.8832 136.0896-23.296 14.0288-78.2336 23.9616-76.9536-37.6832s-2.2528-129.3312-80.4864-135.0656V308.1216h277.9648c31.488 0 58.624 22.1696 64.9728 52.992l39.9872 195.2768c8.448 41.1648-22.9376 79.6672-64.9216 79.6672z" fill="#FFFFFF" /></svg>