<?xml version="1.0" standalone="no"?><!DOCTYPE svg PUBLIC "-//W3C//DTD SVG 1.1//EN" "http://www.w3.org/Graphics/SVG/1.1/DTD/svg11.dtd"><svg class="icon" width="200px" height="200.00px" viewBox="0 0 1024 1024" version="1.1" xmlns="http://www.w3.org/2000/svg"><path d="M508.6208 509.696m-432.3328 0a432.3328 432.3328 0 1 0 864.6656 0 432.3328 432.3328 0 1 0-864.6656 0Z" fill="#F8A10F" /><path d="M283.648 415.5904c-85.0432 0-160.4096 41.3696-207.104 105.0624 4.5568 182.7328 122.368 337.3056 285.952 396.032 103.2192-33.28 177.92-130.048 177.92-244.3776-0.0512-141.7728-114.9952-256.7168-256.768-256.7168z" fill="#FFBD48" /><path d="M327.0656 335.0016l209.5616 120.9856c41.3696 23.8592 41.3696 83.6096 0 107.4688l-209.5616 120.9856c-41.3696 23.8592-93.0816-5.9904-93.0816-53.76V388.7104c0-47.7184 51.712-77.6192 93.0816-53.7088z" fill="#FFEACC" /><path d="M577.28 335.0016l209.5616 120.9856c41.3696 23.8592 41.3696 83.6096 0 107.4688l-209.5616 120.9856c-41.3696 23.8592-93.0816-5.9904-93.0816-53.76V388.7104c0-47.7184 51.712-77.6192 93.0816-53.7088z" fill="#FFFFFF" /></svg>