<?xml version="1.0" standalone="no"?><!DOCTYPE svg PUBLIC "-//W3C//DTD SVG 1.1//EN" "http://www.w3.org/Graphics/SVG/1.1/DTD/svg11.dtd"><svg class="icon" width="200px" height="200.00px" viewBox="0 0 1024 1024" version="1.1" xmlns="http://www.w3.org/2000/svg"><path d="M511.2832 509.696m-432.3328 0a432.3328 432.3328 0 1 0 864.6656 0 432.3328 432.3328 0 1 0-864.6656 0Z" fill="#FF579C" /><path d="M286.3104 415.5904c-85.0432 0-160.4096 41.3696-207.104 105.0624 4.5568 182.7328 122.368 337.3056 285.952 396.032 103.2192-33.28 177.92-130.048 177.92-244.3776-0.0512-141.7728-114.9952-256.7168-256.768-256.7168z" fill="#FF80BA" /><path d="M408.7808 422.8096V358.7584c0-27.9552 22.7328-50.6368 50.6368-50.6368h103.68c27.9552 0 50.6368 22.7328 50.6368 50.6368v64.0512h61.44V358.7584c0-61.7984-50.2784-112.0768-112.0768-112.0768H459.4176c-61.7984 0-112.0768 50.2784-112.0768 112.0768v64.0512h61.44z" fill="#FFC7E3" /><path d="M668.8768 395.2128H353.6384c-48.9472 0-88.6272 39.68-88.6272 88.6272v186.0608c0 48.9472 39.68 88.6272 88.6272 88.6272h315.2384c48.9472 0 88.6272-39.68 88.6272-88.6272V483.84c0-48.9472-39.68-88.6272-88.6272-88.6272z m-130.1504 188.2112v64.512a27.4432 27.4432 0 0 1-54.8864 0v-64.512a55.31648 55.31648 0 0 1-27.9552-48.0768c0-30.6176 24.7808-55.3984 55.3984-55.3984s55.3984 24.7808 55.3984 55.3984c0 20.6336-11.264 38.5536-27.9552 48.0768z" fill="#FFFFFF" /></svg>