<?xml version="1.0" standalone="no"?><!DOCTYPE svg PUBLIC "-//W3C//DTD SVG 1.1//EN" "http://www.w3.org/Graphics/SVG/1.1/DTD/svg11.dtd"><svg class="icon" width="200px" height="200.00px" viewBox="0 0 1024 1024" version="1.1" xmlns="http://www.w3.org/2000/svg"><path d="M513.7408 509.696m-432.3328 0a432.3328 432.3328 0 1 0 864.6656 0 432.3328 432.3328 0 1 0-864.6656 0Z" fill="#8D8DFF" /><path d="M288.768 415.5904c-85.0432 0-160.4096 41.3696-207.104 105.0624 4.5568 182.7328 122.368 337.3056 285.952 396.032 103.2192-33.28 177.92-130.048 177.92-244.3776 0-141.7728-114.944-256.7168-256.768-256.7168z" fill="#A6A6FF" /><path d="M355.7376 375.7056l41.8304-87.6032a46.73536 46.73536 0 0 1 42.1888-26.624h120.3712c16.9984 0 32.7168 9.2672 40.9088 24.1664l49.7152 90.0608H355.7376z" fill="#D7D7FF" /><path d="M513.8432 477.7472c-36.4032 0-65.9968 29.5936-65.9968 65.9968s29.5936 65.9968 65.9968 65.9968 65.9968-29.5936 65.9968-65.9968-29.6448-65.9968-65.9968-65.9968z" fill="#FFFFFF" /><path d="M695.6544 337.3568h-365.568c-47.8208 0-86.5792 38.7584-86.5792 86.5792v235.1616c0 47.8208 38.7584 86.5792 86.5792 86.5792h365.568c47.8208 0 86.5792-38.7584 86.5792-86.5792V423.936c0-47.8208-38.7584-86.5792-86.5792-86.5792z m-181.8112 335.7184c-71.3216 0-129.3312-58.0096-129.3312-129.3312s58.0096-129.3312 129.3312-129.3312c71.3216 0 129.3312 58.0096 129.3312 129.3312s-58.0608 129.3312-129.3312 129.3312z m184.7296-237.568c-15.0528 0-27.2384-12.1856-27.2384-27.2384 0-15.0528 12.1856-27.2384 27.2384-27.2384 15.0528 0 27.2384 12.1856 27.2384 27.2384 0 15.0528-12.1856 27.2384-27.2384 27.2384z" fill="#FFFFFF" /></svg>