<?xml version="1.0" standalone="no"?><!DOCTYPE svg PUBLIC "-//W3C//DTD SVG 1.1//EN" "http://www.w3.org/Graphics/SVG/1.1/DTD/svg11.dtd"><svg class="icon" width="200px" height="200.00px" viewBox="0 0 1024 1024" version="1.1" xmlns="http://www.w3.org/2000/svg"><path d="M511.488 512m-432.3328 0a432.3328 432.3328 0 1 0 864.6656 0 432.3328 432.3328 0 1 0-864.6656 0Z" fill="#FAD400" /><path d="M286.5152 417.8432c-85.0432 0-160.4096 41.3696-207.104 105.0624 4.5568 182.7328 122.368 337.3056 285.952 396.032 103.2192-33.28 177.92-130.048 177.92-244.3776 0-141.7728-114.944-256.7168-256.768-256.7168z" fill="#FFE771" /><path d="M593.9712 786.6368H444.16c-21.0432 0-38.0928-17.0496-38.0928-38.0928v-189.5424h225.9456v189.5424c0.0512 21.0432-16.9984 38.0928-38.0416 38.0928z" fill="#FFF4C5" /><path d="M553.0112 246.0672l218.0608 267.3152c23.6544 29.0304 3.0208 72.4992-34.4064 72.4992H300.4928c-37.4272 0-58.112-43.4688-34.4064-72.4992l218.0608-267.3152c17.8176-21.76 51.0976-21.76 68.864 0z" fill="#FFFFFF" /></svg>