<?xml version="1.0" standalone="no"?><!DOCTYPE svg PUBLIC "-//W3C//DTD SVG 1.1//EN" "http://www.w3.org/Graphics/SVG/1.1/DTD/svg11.dtd"><svg class="icon" width="200px" height="200.00px" viewBox="0 0 1024 1024" version="1.1" xmlns="http://www.w3.org/2000/svg"><path d="M515.584 512.8704m-432.3328 0a432.3328 432.3328 0 1 0 864.6656 0 432.3328 432.3328 0 1 0-864.6656 0Z" fill="#A7DD00" /><path d="M290.6112 418.7136c-85.0432 0-160.4096 41.3696-207.104 105.0624 4.5568 182.7328 122.368 337.3056 285.952 396.032 103.2192-33.28 177.92-130.048 177.92-244.3776 0-141.7216-114.944-256.7168-256.768-256.7168z" fill="#C1EF00" /><path d="M515.584 224.1024c-159.488 0-288.768 129.28-288.768 288.768s129.28 288.768 288.768 288.768 288.768-129.28 288.768-288.768-129.28-288.768-288.768-288.768z m143.9744 324.4544H512c-16.9472 0-30.72-13.7728-30.72-30.72 0-0.8192 0.0512-1.6384 0.1024-2.4576-0.0512-0.8192-0.1024-1.6384-0.1024-2.4576V342.1184c0-16.9472 13.7728-30.72 30.72-30.72s30.72 13.7728 30.72 30.72v144.9984h116.8384c16.9472 0 30.72 13.7728 30.72 30.72s-13.7216 30.72-30.72 30.72z" fill="#FFFFFF" /></svg>