<?xml version="1.0" standalone="no"?><!DOCTYPE svg PUBLIC "-//W3C//DTD SVG 1.1//EN" "http://www.w3.org/Graphics/SVG/1.1/DTD/svg11.dtd"><svg class="icon" width="200px" height="200.00px" viewBox="0 0 1024 1024" version="1.1" xmlns="http://www.w3.org/2000/svg"><path d="M511.7952 512m-432.3328 0a432.3328 432.3328 0 1 0 864.6656 0 432.3328 432.3328 0 1 0-864.6656 0Z" fill="#4AEDCD" /><path d="M286.8736 417.8432c-85.0432 0-160.4096 41.3696-207.104 105.0624 4.5568 182.7328 122.368 337.3056 285.952 396.032 103.2192-33.28 177.92-130.048 177.92-244.3776-0.0512-141.7728-114.9952-256.7168-256.768-256.7168z" fill="#83FFE1" /><path d="M511.7952 206.5408c-143.36 0-259.584 116.224-259.584 259.584 0 125.0304 115.3536 241.5104 216.4736 325.9392 25.2416 21.0944 61.8496 21.7088 87.7056 1.3824 111.6672-87.8592 214.9888-200.704 214.9888-327.2704 0-143.4112-116.224-259.6352-259.584-259.6352z m0 367.7184c-59.7504 0-108.1344-48.4352-108.1344-108.1344 0-59.7504 48.4352-108.1344 108.1344-108.1344s108.1344 48.4352 108.1344 108.1344c0.0512 59.7504-48.384 108.1344-108.1344 108.1344z" fill="#FFFFFF" /></svg>