<?xml version="1.0" standalone="no"?><!DOCTYPE svg PUBLIC "-//W3C//DTD SVG 1.1//EN" "http://www.w3.org/Graphics/SVG/1.1/DTD/svg11.dtd"><svg class="icon" width="200px" height="200.00px" viewBox="0 0 1024 1024" version="1.1" xmlns="http://www.w3.org/2000/svg"><path d="M511.5392 512m-432.3328 0a432.3328 432.3328 0 1 0 864.6656 0 432.3328 432.3328 0 1 0-864.6656 0Z" fill="#00DBFF" /><path d="M286.6176 417.8432c-85.0432 0-160.4096 41.3696-207.104 105.0624 4.5568 182.7328 122.368 337.3056 285.952 396.032 103.2192-33.28 177.92-130.048 177.92-244.3776-0.0512-141.7728-114.9952-256.7168-256.768-256.7168z" fill="#33ECFF" /><path d="M586.9568 255.3344H437.1456c-21.0432 0-38.0928 17.0496-38.0928 38.0928v189.5424h225.9456V293.4272c0-21.0432-17.0496-38.0928-38.0416-38.0928z" fill="#C2FFFF" /><path d="M545.9968 795.904l218.0608-267.3152c23.6544-29.0304 3.0208-72.4992-34.4064-72.4992H293.4784c-37.4272 0-58.112 43.4688-34.4064 72.4992l218.0608 267.3152c17.7664 21.76 51.0464 21.76 68.864 0z" fill="#FFFFFF" /></svg>